<svg xmlns="http://www.w3.org/2000/svg" viewBox="0 0 512 512" width="100%" height="100%">
  <defs>
    <linearGradient id="bgBox" x1="0%" y1="0%" x2="100%" y2="100%">
      <stop offset="0%" stop-color="#12182c" />
      <stop offset="100%" stop-color="#070a14" />
    </linearGradient>
    
    <linearGradient id="jellyCap" x1="0%" y1="0%" x2="50%" y2="100%">
      <stop offset="0%" stop-color="#15b5e3" />
      <stop offset="100%" stop-color="#1e55d6" />
    </linearGradient>
    
    <linearGradient id="playBtn" x1="0%" y1="0%" x2="100%" y2="100%">
      <stop offset="0%" stop-color="#b872f2" />
      <stop offset="100%" stop-color="#3b82f6" />
    </linearGradient>
    
    <linearGradient id="textGrad" x1="0%" y1="0%" x2="100%" y2="0%">
      <stop offset="0%" stop-color="#30dfdb" />
      <stop offset="50%" stop-color="#3b82f6" />
      <stop offset="100%" stop-color="#a469e3" />
    </linearGradient>

    <linearGradient id="tentacleBlue" x1="0%" y1="0%" x2="0%" y2="100%">
      <stop offset="0%" stop-color="#1e55d6" />
      <stop offset="100%" stop-color="#30dfdb" />
    </linearGradient>
    <linearGradient id="tentaclePurple" x1="0%" y1="0%" x2="0%" y2="100%">
      <stop offset="0%" stop-color="#3b82f6" />
      <stop offset="100%" stop-color="#a469e3" />
    </linearGradient>

    <filter id="shadow" x="-10%" y="-10%" width="120%" height="120%">
      <feDropShadow dx="0" dy="10" stdDeviation="8" flood-opacity="0.4" flood-color="#000" />
    </filter>
  </defs>

  <rect x="24" y="24" width="464" height="464" rx="80" fill="url(#bgBox)" />
  
  <rect x="48" y="48" width="416" height="416" rx="60" fill="none" stroke="#2e3b5e" stroke-width="6" />

  <polyline points="80,90 105,115 80,140" fill="none" stroke="#4ade80" stroke-width="10" stroke-linecap="round" stroke-linejoin="round" />
  <line x1="115" y1="140" x2="145" y2="140" stroke="#4ade80" stroke-width="10" stroke-linecap="round" />

  <g fill="none" stroke-width="12" stroke-linecap="round">
    <path d="M 160 210 C 160 240, 130 250, 130 280 C 130 310, 150 320, 140 350" stroke="url(#tentacleBlue)" />
    <path d="M 185 210 C 185 250, 155 260, 155 300 C 155 340, 185 350, 165 380" stroke="url(#tentaclePurple)" />
    <path d="M 215 210 C 215 260, 185 280, 185 320 C 185 360, 215 370, 195 400" stroke="url(#tentacleBlue)" />
    <path d="M 256 210 C 256 270, 226 290, 226 330 C 226 370, 266 380, 246 410" stroke="url(#tentaclePurple)" stroke-width="14" />
    <path d="M 297 210 C 297 260, 327 280, 327 320 C 327 360, 297 370, 317 400" stroke="url(#tentacleBlue)" />
    <path d="M 327 210 C 327 250, 357 260, 357 300 C 357 340, 327 350, 347 380" stroke="url(#tentaclePurple)" />
    <path d="M 352 210 C 352 240, 382 250, 382 280 C 382 310, 362 320, 372 350" stroke="url(#tentacleBlue)" />
  </g>

  <path d="M 140 190 C 140 90, 372 90, 372 190 C 372 210, 340 215, 320 215 C 290 215, 275 205, 256 205 C 237 205, 222 215, 192 215 C 172 215, 140 210, 140 190 Z" fill="url(#jellyCap)" filter="url(#shadow)" />
  
  <path d="M256 115 L 205 195 C 200 203 205 212 215 212 L 297 212 C 307 212 312 203 307 195 Z" fill="none" stroke="url(#playBtn)" stroke-width="18" stroke-linejoin="round" />

  <text x="256" y="415" font-family="'Courier New', Consolas, monospace" font-size="72" font-weight="900" fill="url(#textGrad)" text-anchor="middle" letter-spacing="4">aquafin</text>
  
  <line x1="120" y1="465" x2="160" y2="465" stroke="#485b85" stroke-width="4" stroke-linecap="round" />
  <text x="256" y="473" font-family="'Courier New', Consolas, monospace" font-size="22" font-weight="bold" fill="#485b85" text-anchor="middle" letter-spacing="2">jellyfin tui client</text>
  <line x1="352" y1="465" x2="392" y2="465" stroke="#485b85" stroke-width="4" stroke-linecap="round" />
</svg>
